<svg xmlns="http://www.w3.org/2000/svg" fill="#fff" viewBox="-2 -4 32 32"><path d="M16.06,1.93L18.02.02l5.97-.02c1.42,1.11,2.6,2.57,3.95,3.8.11.11.11.24.12.38.08.6.09,3.19-.01,3.75s-1.04,1.15-1.24,1.74c.04.21.97.87,1.12,1.14.45.78-.07,5.05.09,6.23l-6.94,6.94-13.73.03-.5-.13L.09,17.03l-.02-5.97c.08-.43.99-.98,1.24-1.4.05-.27-1.14-1.23-1.24-1.74-.2-1.09.13-2.71,0-3.87C1.27,2.63,2.69,1.22,4.13,0l5.97.02,1.96,1.91v2.88c0,.14.31.18.43.19.57.07,2.74.09,3.26,0,.1-.02.31-.1.31-.19V1.93ZM9.06,3h-3.69c-.16,0-2.18,2.11-2.25,2.25-.2.44-.18,1.94.49,2.12l2.38-2.37h3.06v-2ZM19.06,5h3.06c.16,0,1.94,2.12,2.31,2.32.66.34.76-1.62.56-2.07-.07-.14-2.09-2.25-2.25-2.25h-3.69v2ZM6.01,9.13c-.13.02-1.83,1.75-1.89,1.87-.11.24-.11,1.39-.07,1.69.07.55,1.55,1.77,2.05,2.17.13-.02,1.83-1.75,1.89-1.87.14-.31.12-1.77-.05-2.07-.1-.17-1.8-1.82-1.93-1.8ZM22.01,9.13c-.13.02-1.83,1.75-1.89,1.87-.11.24-.11,1.39-.07,1.69.07.55,1.55,1.77,2.05,2.17.13-.02,1.83-1.75,1.89-1.87.14-.31.12-1.77-.05-2.07-.1-.17-1.8-1.82-1.93-1.8ZM11.15,14.02c-.45.49-4,3.74-3.95,4.02l3.95,3.93h5.82l3.95-3.93c.05-.28-3.5-3.53-3.95-4.02h-5.82Z"/><path d="M13.02,16.02c.24-.07,1.83-.07,2.07,0,.16.05.98.87.95,1.02l-2.04,1.95-1.95-1.95c-.03-.15.8-.97.95-1.02Z"/></svg>
