<svg xmlns="http://www.w3.org/2000/svg" fill="#fff" viewBox="-3 -2 32 32"><path d="M26,10.99c-.83-.45-2.63-1.44-2.7.21-.05,1.06,1.4,3.66,1.83,4.85.15.4.98,2.73.82,2.95-4.37.9-8.85,3.4-9.96,8.04-1.27,1.19-3.84,1.27-5.32.47-1.01-.55-.85-1.35-1.31-2.32-1.35-2.88-4.57-4.83-7.51-5.74-.34-.1-1.78-.35-1.84-.54-.07-.22.72-2.45.86-2.86.47-1.3,2.09-4.13,1.73-5.35-.3-.98-2.07-.02-2.6.29-.1-2.76,1.05-5.71,3.18-7.5.47-.4.73-.79.95-.07.4,1.36.49,4.12,1.13,5.24,1.16,2,4.66.7,3.16-2.04-.37-.67-1.06-1.03-1.42-1.68L12.96,0l6.04,4.94c-.54.83-1.39,1.27-1.71,2.27-.78,2.45,2.88,3.55,3.68.8.43-1.5.56-3.27.94-4.81.06-.13.11-.23.27-.2.22.03,1.48,1.29,1.7,1.56,1.43,1.74,2.22,4.19,2.13,6.43ZM19.25,12.61c.08-.1-1.88-.98-2.08-1.1-2.32-1.38-4.39-4.45-1.54-6.46l-2.3-2.07c-.11-.1-.23-.14-.38-.12-.29.03-2.17,1.89-2.57,2.19,2.8,2.04.79,5.07-1.54,6.46-.2.12-2.16,1-2.08,1.1,2.86,1.26,4.38,3.68,5.41,6.53.14.4.65,2.56.78,2.6.27.09.16-.16.2-.29,1.19-3.69,2.21-7.15,6.11-8.83ZM10,20.86c0-1.9-1.11-3.29-2.58-4.35l-2.42-1.39c.34,1.77.42,3.08,1.96,4.23.32.24,2.87,1.7,3.04,1.52ZM16.01,20.86c2.73-.91,5.06-2.53,4.87-5.75-2.23,1.28-4.93,2.78-4.87,5.75Z"/><polygon points="13.13 9.99 14.98 13.03 13.14 15.91 12.88 15.99 11.03 12.95 12.87 10.07 13.13 9.99"/></svg>
