<svg xmlns="http://www.w3.org/2000/svg" fill="#fff" viewBox="-2 -2 28 28"><path d="M16.91,9.69c.22.03.12-.28.12-.44.1-2.4-.91-5.03-2-7.13.22-.12.64.18.84.29,4.32,2.51,9.74,12.25,3.08,15.12l-2.66.65c2.28.98,4.51,1.09,6.12-1.06.22-.29.3-.63.47-.9.08-.12-.01-.22.28-.16,3.09,6.39-2.33,9.43-8.06,7.38-3.96-1.42-6.73-5.12-8-9-.33,2.65.79,4.97,1.84,7.29.05.1.21.26.04.34-1.66-.78-3.07-2.12-4.17-3.58-2.49-3.32-4.86-9.57.11-11.85l2.87-.69c-2.06-1-4.26-1.19-5.87.69-.39.46-.59,1.02-1,1.43C-2.28,1.54,3.53-1.54,9.28.76c3.68,1.47,6.61,5.16,7.63,8.93ZM10.88,8.1c-.63.07-2.8.78-2.82,1.5-.03,1.5,2.04,3.91,3.16,4.84.57.47,2.76,1.82,3.44,1.56.57-.21,1.3-2.27,1.35-2.88.22-2.85-2.29-5.31-5.14-5.01Z"/></svg>
