<svg xmlns="http://www.w3.org/2000/svg" fill="#fff" viewBox="-4.5 -2 32 32"><path d="M16.13,17.75c.25-.19,1.3,2.19,1.38,2.43.19.6.59,2.43.47,2.98-.1.46-1.68,2.38-2.1,2.78-.38.38-2.32,1.94-2.73,2.04s-1.59-.82-1.96-1.11c-.82-.64-1.48-1.43-2.19-2.18,2.9-1.61,5.52-4.03,7.12-6.94Z"/><path d="M11,0v9.12c1.3-.16,2.71-.23,4,0V0l3.06,1.01,4.94,7.93c0,.33-2.08,2.06-2.37,2.52.37.65.91,1.16,1.29,1.81,2.16,3.66,1.1,8.86-1.93,11.74-.05-2.05-.13-4.11-.91-6.03-.71-1.77-2-3.23-2.97-4.84-.15-.1-.75,1.29-.85,1.46-1.89,3.29-4.4,6.25-7.98,7.77S.1,24.4,0,20c2.63,2.14,3.54-.18,3.86-2.58.2-1.47-.1-2.99.66-4.34.3-.53.76-.89,1.08-1.4,0-.18-2.22-2.09-2.49-2.5-.07-.11-.15-.17-.07-.32L7.9,1.03l3.09-1.03ZM9,9.75v-4.5l-2.09,3.31c0,.1,1.25,1.34,1.34,1.38.04.02.73-.16.75-.19ZM17,5.25v4.19c0,.15.7.35.91.29.12-.03,1.19-1.1,1.2-1.19.03-.19-1.8-2.94-2.11-3.29Z"/></svg>
