<svg xmlns="http://www.w3.org/2000/svg" fill="#fff" viewBox="-3 -2 32 32"><path d="M.02,13.07c.06-.62.41-1.76.62-2.38.98-2.93,3.11-5.58,5.32-7.68-.11.42.46,3.37,1.18,2.87.05-.04.42-.89.58-1.11C9.88,1.75,13.25-.13,17.02,0c-.24.72-.61,1.41-.78,2.15-.95,3.9,1.18,5.73,4.78,3.85.15,3,2.24,5.17,3.4,7.79.38.86.74,1.83,1.01,2.74.15.5.61,1.87.6,2.29,0,.28-.09.32-.25.5-1.23,1.32-4.01,2.27-5.74,2.7l-.89,4.98c-.22.06-.25-.09-.38-.19-1.05-.8-2.02-2.2-3.06-3.07-.27-.22-.97-.03-1.2.19l-2.36,3.99-.26.08c-.66-1.41-1.58-2.72-2.37-4.07-.18-.17-.71-.33-.94-.31-.48.05-2.88,2.99-3.56,3.37l-.94-5.37c-1.4-1.12-3-2.09-4.04-3.59,2.05-2.5,5.07-4.64,8.21-5.5,5.24-1.45,10.13.21,14.09,3.71.09.02.08-.12.06-.18-.79-2.48-3.25-5.6-5.54-6.84C10.61,5.87,3.85,10.03.02,15.01c.05-.63-.06-1.32,0-1.94ZM10.52,14.38c-3.13,1.16-3.25,5.79-.25,7.19,4.92,2.29,8.25-5.08,3.25-7.19,1.74,1.31,1.15,4.37-1.06,4.62-2.79.32-3.94-2.85-1.94-4.62Z"/></svg>
