<svg xmlns="http://www.w3.org/2000/svg" fill="#fff" viewBox="-2 -2 30 30"><path d="M23.33,23.36c-3.42,3.42-7.36,4.22-8.64-1.46-.16-.71-.9-5.59-.69-5.88l6.43,4.5-4.44-6.5c.28-.21,5.07.51,5.77.66,5.73,1.27,5.07,5.16,1.56,8.67Z"/><path d="M16,12.02l4.62-6.62-6.62,4.62c.11-2.09.27-4.34.81-6.38.61-2.28,1.92-4.06,4.57-3.57,2.01.37,5.63,4.02,6.34,5.91,2.09,5.58-6.26,5.87-9.72,6.03Z"/><path d="M12,10.02l-6.5-4.5,4.5,6.5c-2.24-.11-4.73-.28-6.87-.94C-1.01,9.81-.6,6.48,1.81,3.65,3.67,1.47,7.29-1.67,10.01,1.08c1.69,1.71,1.81,6.63,1.99,8.94Z"/><path d="M10,14.03l-4.62,6.62,6.62-4.62c-.13,2.24-.28,4.73-.94,6.87-1.07,3.47-3.85,3.99-6.68,1.93-2.51-1.83-6.36-5.98-3.2-8.93,1.64-1.53,6.61-1.68,8.81-1.87Z"/></svg>
