<svg xmlns="http://www.w3.org/2000/svg" fill="#fff" viewBox="-2 -1 30 30"><path d="M13.12,0l4.88,8.82,8-2.76c-1.3,4.57-1.93,9.3-2.01,14.05-4.31,1.37-7.95,4.46-10.86,7.83l-.19.06c-2.95-3.39-6.58-6.51-10.93-7.89-.1-4.75-.66-9.5-2.01-14.05l8,2.76L13.12,0ZM13.12,6.37c-.3-.07-.2.05-.28.16-.95,1.38-1.66,3.21-2.56,4.65.4.36,2.48,2.69,2.78,2.69l2.32-3.2-2.26-4.31ZM13,17.31v6.19c2.41-2.16,4.98-4.24,7.98-5.52.16-2.36.35-4.71.77-7.04,0-.13-.17-.05-.27-.02-1.66.5-3.39,1.37-5.05,1.95l-3.44,4.44ZM6.13,13.12v3.81c1.58.73,3.23,1.41,4.87,1.94,0-.15.01-.29,0-.44-.02-.49-1.54-2.88-1.94-3.31-.71-.76-2.08-1.37-2.94-2Z"/><path d="M19,14v3.12c-1.24.31-2.67,1.53-3.82,1.87-.36.11-.17-1-.09-1.21s1.68-2.61,1.85-2.78c.4-.39,1.51-.76,2.05-1.01Z"/></svg>
