<svg xmlns="http://www.w3.org/2000/svg" fill="#fff" viewBox="-1 -1 30 30"><path d="M8.87,9.03c-.75-1.07-2.2-1.98-2.93-3.01-.27-.38-.65-1.2-.84-1.66-.04-.1-.22-.26-.04-.34l8.88,3.89.44-.07,8.62-3.82c-.6,2.2-2.48,3.35-3.87,5h2.94c.38,0,4.98,4.39,5.82,4.81l.12.31-3.04,1.85-3.8-2.83c-.5-.15-1.93,1.04-2.27.84l-1.83-2.86c-.17.08-.95,1.7-.94,1.93.05.72,1.59,2.92,1.87,3.76v5.19l-2-.88-1.94,6.75-2.06-6.75-2,.88v-5.19c.28-.84,1.83-3.04,1.87-3.76.01-.23-.77-1.84-.94-1.93l-1.83,2.86c-.34.2-1.76-.99-2.27-.84l-3.8,2.83-3.04-1.85.12-.31c.83-.42,5.44-4.81,5.82-4.81h2.94Z"/><circle cx="14" cy="2.53" r="2.53"/></svg>
