<svg xmlns="http://www.w3.org/2000/svg" fill="#fff" viewBox="0 0 32 32">
  <path d="M25,4h0s-8.32,15.44-8.32,15.44l-1.13-.56c-.62-.31-1.37-.06-1.68.56-.31.62-.06,1.37.56,1.68l1.06.53-3.24,6.02,3.74,2.34s2.83-.07,2-3l2.24-2.98,2.2,1.1c.18.09.37.13.56.13.46,0,.9-.25,1.12-.69.31-.62.06-1.37-.56-1.68l-1.22-.61c3.4-2.05,11.49-8.37,2.66-18.27Z"/>
  <path d="M15.99,16.52l4.22-7.83-.03-.03c-1.75-1.64-4.15-2.66-6.81-2.66-2.24,0-4.3.73-5.95,1.95,2.85.05,5.39,1.27,7.13,3.17-.88-.17-1.79-.27-2.72-.27-3.91,0-7.41,1.61-9.83,4.17,1.74-.8,3.69-1.26,5.75-1.26,3.03,0,5.82.98,8.05,2.61l.18.15Z"/>
</svg>
