<svg xmlns="http://www.w3.org/2000/svg" fill="#fff" viewBox="-2 -2 32 32"><path d="M13.89,22.62c.3.04.2,0,.26-.17.95-2.61.84-6.08,4.21-6.92,2.3-.57,5.56,1.32,7.44,2.61.35.24,2.11,1.55,2.21,1.79.09.21-.08.17-.16.21-4.59,2.66-9.24,5.27-13.88,7.82C9.28,25.44,4.73,22.59.02,20.12c-.16-.22.88-.97,1.07-1.12,1.68-1.37,5.56-3.74,7.73-3.62,3.88.22,4.3,4.28,5.08,7.24Z"/><path d="M9.02,13v-3C4.81,10.66,1.49,14.1.14,18l-.13-1.07C.49,11.71,2.16,5.82,6.95,3c.23.01,1.11,4.29,2.88,2.62,1.04-.98,1.13-4.25,1.19-5.63l.6.84c2.58,4.47,1.57,9.2-2.6,12.16Z"/><path d="M19.02,13c-4.17-2.96-5.18-7.7-2.6-12.16l.6-.84c.05,1.37.15,4.65,1.19,5.63,1.77,1.67,2.64-2.61,2.88-2.62,4.79,2.82,6.46,8.71,6.94,13.93l-.13,1.07c-1.36-3.89-4.68-7.34-8.88-8v3Z"/></svg>
