<svg xmlns="http://www.w3.org/2000/svg" fill="#fff" viewBox="-3 -2 32 32"><path d="M9.14,0l.87,4.69.2.3h5.79S17.08,0,17.08,0c2.77,1.89,5.49,2.85,6.52,6.35.9,3.02,1.82,7.61,2.25,10.75.19,1.39.46,2.05-.47,3.21-1.73,2.18-9.13,7.37-11.82,7.68-2.36.27-6.59-2.56-8.54-3.94C3.87,23.23.24,20.5.03,19.19c-.13-.85.27-2.51.43-3.43.46-2.7,1.08-5.71,1.75-8.37C3.19,3.45,5.21,2.12,8.66.21c.16-.09.28-.24.49-.2ZM8.36,9.03c-.64.07-1.16.6-1.29,1.22-.14.68-.14,3.07.06,3.7.45,1.42,2.46,1.33,2.82-.07.17-.64.13-3.43-.13-4-.24-.54-.88-.92-1.47-.85ZM17.36,9.03c-.47.05-.97.41-1.16.85-.28.66-.29,3.37-.07,4.07.47,1.48,2.56,1.29,2.85-.16.12-.57.11-2.73.03-3.35-.1-.8-.83-1.51-1.66-1.41ZM17.89,19.38c-.34-4.56-9.32-4.54-9.75,0-.25.26-4.07-1.34-4.62-1.63.64,2.09,2.53,3.71,4.31,4.88,1,.65,4.05,2.31,5.14,2.36.74.03,3.02-1.07,3.76-1.47,2.28-1.22,5.02-3.19,5.79-5.77-.53.33-4.4,1.87-4.62,1.63Z"/><path d="M10.44,21.34c-.61-.63-.58-2.07.03-2.7.88-.9,4.1-.9,5.04-.07.68.6.72,2.09.13,2.74-.88.97-4.3.96-5.21.02Z"/></svg>
