<svg xmlns="http://www.w3.org/2000/svg" fill="#fff" viewBox="-2 -2 32 32"><polygon points="8.98 3.97 8.98 7.97 6.17 7.97 4.51 13.77 7.98 17.28 7.98 22.97 0 15.01 3.04 3.97 8.98 3.97"/><path d="M24.11,3.97l3.86,11.04-7.98,7.96v-5.69c1.06-1.14,2.32-2.16,3.25-3.38-.26-.65-1.87-5.93-2.19-5.93h-2.06V3.97h5.12Z"/><path d="M9.98,13.97l2.97,1.9.03,4.91c.07.36.69.78.95,1.06.18.03.99-.81,1.04-1.06l.03-4.91,2.97-1.9v10.06l-3.95,3.93c-.28.05-3.51-3.51-4.05-3.93v-10.06Z"/><path d="M15.88,8.2c.05.08,1.27.52,1.65.79,1.46,1.07,2.49,3.17,2.46,4.98-3.39-2.67-8.59-2.62-12,0,.06-2.6,1.65-4.96,4.12-5.84l.51-3.22c-.06-.36-1.35-.82-1.58-1.81-1.02-4.34,7.29-3.99,5.83.18-.29.82-1.05,1.06-1.51,1.62l.53,3.29Z"/></svg>
