<svg xmlns="http://www.w3.org/2000/svg" fill="#fff" viewBox="0 0 32 32">
  <path d="M28,14h-1.19c-.82-4.47-4.34-7.99-8.81-8.81v-1.19c0-1.1-.9-2-2-2s-2,.9-2,2v1.19c-4.47.82-7.99,4.34-8.81,8.81h-1.19c-1.1,0-2,.9-2,2s.9,2,2,2h1.19c.82,4.47,4.34,7.99,8.81,8.81v1.19c0,1.1.9,2,2,2s2-.9,2-2v-1.19c4.47-.82,7.99-4.34,8.81-8.81h1.19c1.1,0,2-.9,2-2s-.9-2-2-2ZM18,23.74v-2.74l-2-3-2,3v2.74c-2.8-.73-5.01-2.93-5.74-5.74h2.74l3-2-3-2h-2.74c.73-2.8,2.93-5.01,5.74-5.74v2.74l2,3,2-3v-2.74c2.8.73,5.01,2.93,5.74,5.74h-2.74l-3,2,3,2h2.74c-.73,2.8-2.93,5.01-5.74,5.74Z"/>
</svg>
