<svg xmlns="http://www.w3.org/2000/svg" fill="#fff" viewBox="-5 -2 32 32"><path d="M10.03,7.12c-1.65.26-3.23,1.09-4.31,2.37-3.55,4.22-1.08,10.48,4.25,11.38.08-.7-.15-1.44-.41-2.09-.95-2.33-3.4-2.85-2.33-6.16,1.26-3.89,7.31-3.28,7.8.7.43,3.5-3.06,4.13-2.99,7.55,1.97-.28,3.82-1.51,4.88-3.18,2.73-4.34.06-9.8-4.88-10.57V0c1.09,1.1,1.94,2.43,3.12,3.44.96.82,2.11,1.36,3.07,2.18,4.54,3.9,5.16,10.82,1.31,15.44-2.41,2.89-6.41,3.57-8.44,6.94-.2.05-.8-.91-1-1.13-2.3-2.54-5.37-3.23-7.5-5.75C-1.32,16.51-.73,9.55,3.84,5.62c.95-.82,2.11-1.37,3.07-2.18,1.18-1.01,2.03-2.34,3.12-3.44v7.12Z"/></svg>
