<svg xmlns="http://www.w3.org/2000/svg" fill="#fff" viewBox="-4 -2 32 32"><path d="M8.01,16.01l1.04-10.15C9.54,5.22,11.63.1,11.95.01c.25-.07.17.12.25.25,1.07,1.87,2.01,4.04,2.88,6l.93,9.76h-8Z"/><path d="M17.45,18.01c1.85-.25,3.05-2.13,2.53-3.9-.16-.55-.99-1.71-.96-2.15l.94-1.95c3.35,2.58,6.28,7.59,1.85,10.73-1.91,1.35-3.53,1.38-5.83,1.28l-1.96-4c1.08-.1,2.39.14,3.44,0Z"/><path d="M10.01,18.01l-1.96,4c-1.87.03-3.4.14-5.08-.78-5.29-2.88-2.63-8.39,1.1-11.23.15.51.91,1.49.94,1.95.03.5-1.02,1.91-1.1,2.78-.11,1.19.64,2.48,1.72,2.96.12.05.89.31.94.31h3.44Z"/><path d="M12.13,18.01l2.62,5.95c.05.36-.49,3.44-.64,3.84-.07.18-.12.18-.29.21-.3.06-3.54.05-3.73-.02-.1-.03-.16-.08-.18-.19.04-1.1-.78-2.82-.64-3.84.08-.62,1.74-3.92,2.14-4.74.07-.15.6-1.31.73-1.2Z"/></svg>
