<svg xmlns="http://www.w3.org/2000/svg" fill="#fff" viewBox="-2 -2.5 32 32"><path d="M20.07,11.15c1.72.45,3.09,1.7,4.25,3-.04-.81.05-1.63,0-2.44-.03-.46-.33-1.37-.23-1.72.04-.12,1.6-1.71,1.79-1.84.11-.07.12-.17.31-.12,2.08,3.83,2.77,8.64.48,12.54-2,3.39-5.82,5.23-9.41,6.47-.19.02-.22.02-.18-.18.08-.34.81-2.07,1.01-2.37.3-.46,1.16-1.04,1.61-1.52.35-.36.64-.83,1-1.19-4.21,1.7-9.04,1.71-13.25,0,.26.3.48.65.75.94.45.51,1.52,1.27,1.81,1.69.17.24.96,2.1,1.06,2.44.06.19-.01.21-.18.18-.93-.12-3.5-1.36-4.4-1.85C-.32,21.41-1.66,14.77,1.95,8.03c.18-.05.21.05.31.12.19.13,1.76,1.72,1.79,1.84.08.3-.21.97-.23,1.35-.06.93.04,1.88,0,2.81,1.13-1.33,2.54-2.55,4.25-3v3.31c0,.14.47.74.62.88,2.05,1.92,8.48,1.86,10.62.11.2-.16.76-.78.76-.99v-3.31Z"/><path d="M16.33,7.29c-.15.22,1.59,2.24,1.73,2.67l-1.63,4.49c-.04.09-.12.13-.2.17-.47.24-4.13.24-4.54-.03-.2-.14-1.37-3.97-1.62-4.52-.02-.45,1.42-2.13,1.74-2.61C8.38,4.87,10.22-.42,14.63.03c3.55.36,4.76,5.41,1.7,7.26Z"/></svg>
