<svg xmlns="http://www.w3.org/2000/svg" fill="#fff" viewBox="-3 -2.5 32 32"><path d="M16.03,0c3.25,2.81,6.78,6.33,8.73,10.21,4.58,9.13-3.78,17.48-13.04,16.79C5.27,26.52-.44,20.98.03,14.31.39,9.1,6.28,3.25,10.03,0c-1.71,3.58-4.34,6.74-5.44,10.63-2.05,7.23,2.48,13.49,10.21,12.21,6.15-1.01,8.25-6.76,6.63-12.31-1.12-3.84-3.7-6.98-5.41-10.53Z"/><path d="M12.97,2c.19-.05.21.12.29.21,2.12,2.11,5.57,8.12,5.78,11.1.55,7.72-9.94,9.08-11.79,2.41-1.27-4.61,3.07-10.26,5.72-13.72ZM13.16,6.13l-.26.08c-1.29,2.1-4.41,5.86-1.81,8.05,1.37,1.15,3.52.87,4.46-.67,1.47-2.38-1.29-5.44-2.4-7.46Z"/></svg>
