<svg xmlns="http://www.w3.org/2000/svg" fill="#fff" viewBox="-2 -2.5 32 32"><path d="M18.98,26.99l2.87-8.37-3.85,1.4-1.91,4.97c-.29.06-.2-.04-.28-.16-.15-.23-.73-1.36-.79-1.59-.26-1.01.37-5.3.61-6.53.44-2.26,1.48-4.55,4.09-4.73-1.7-1.42-3.71-2.5-5.51-3.81l-.3-.07-5.82,3.76,1.31.37c1.86.85,2.53,2.6,2.89,4.48.24,1.22.86,5.52.61,6.53-.06.22-.64,1.36-.79,1.59-.08.12.01.22-.28.16l-1.91-4.97-3.85-1.4,2.87,8.37-5.05-3.01L0,14.15,13.94,0l14.03,13.95-3.93,10.03-5.05,3.01ZM21.45,15.5c0-.81-.66-1.47-1.47-1.47s-1.47.66-1.47,1.47.66,1.47,1.47,1.47,1.47-.66,1.47-1.47Z"/></svg>
