<svg xmlns="http://www.w3.org/2000/svg" fill="#fff" viewBox="-2 -2 32 32"><path d="M14.99,0l3.01,2.21,3.01,10.02,4.11.08,2.73,3.64.12.45-1.87,3.83c-.36.23-2.6-.99-3.14-.84-.45.12-2.26,2.42-2.85,2.79-.38.77.17,3.77-.24,4.26-.11.13-2.64,1.8-2.81,1.81-.7-.15-2.61-1.92-3.12-1.87l-3.01,1.87-2.92-1.95c-.12-1.35.15-2.8-.14-4.11-.59-.37-2.4-2.67-2.85-2.79-.54-.15-2.79,1.07-3.14.84l-1.88-3.92c.79-1.42,1.95-2.64,2.87-4l4.11-.08,3.01-10.02,3.01-2.21v12.31l-4.87,4.89c-.04.23,2.47,2.53,2.82,2.91l3.09-2.86,3,2.86,2.82-2.82c-1.48-1.75-3.27-3.31-4.87-4.98V0Z"/></svg>
