<svg xmlns="http://www.w3.org/2000/svg" fill="#fff" viewBox="-4 -2 32 32"><path d="M14.92,2.25s.91.4,1.14.55c1.98,1.32,2.57,4,1.35,6.04,3.72,1.82,5.88,5.92,6.45,9.91s-.31,5.13-3.59,6.97c-5.41,3.04-11.09,3.04-16.5,0C1.23,24.3-.18,23.04.02,19.97c.38-5.87,3.91-11.47,10.19-11.94,1.1-.08,3.37.28,4.18-.32.64-.48.78-1.29.36-1.97-.6-.98-1.15.07-1.97.24-1.6.33-3.36-.51-3.7-2.19-.73-3.57,3.78-5.28,5.64-2.14.11.18.14.52.21.6ZM4.86,14.06c-.85.12-1.44.94-1.66,1.72-.54,1.9.51,3.71,2.23,4.53.55.26,3.07.96,3.47.67.33-.23-.19-3.06-.32-3.57-.44-1.66-1.71-3.64-3.72-3.35ZM18.61,14.06c-2.77.29-3.65,4.11-3.61,6.41,0,.49.06.59.57.57,2.04-.09,4.58-1.01,5.23-3.15.49-1.6-.16-4.04-2.19-3.82ZM14.89,24.9c-.46-3.86-5.25-3.73-5.87,0,.07.06.92-.48,1.13-.56,1.54-.6,3.41-.42,4.75.56Z"/></svg>
