<svg xmlns="http://www.w3.org/2000/svg" fill="#fff" viewBox="-2 -2 32 32"><path d="M14.13,0l3.87,9.82c.26.21,1.2-.81,1.38-1.01.74-.85,1-1.67,1.49-2.63.05-.09.05-.4.26-.18.08.09.64,2.05.71,2.35.53,2.13.67,4.45-.15,6.52-.07.19-.62,1.07-.56,1.13,2.72-.15,5.37-1.65,6.75-4,.21-.03.12.17.12.31.35,6.54-5.35,13.1-11,15.69-.05-1.61-.55-3.36-1.56-4.63-.27-.33-1.19-1.34-1.6-1.23-.36.1-1.55,1.59-1.78,1.98-.8,1.36-.78,2.23-1.06,3.69-.02.13.08.26-.18.19-.5-.14-2.33-1.39-2.86-1.77C3.38,22.96-.16,17.84,0,12l1.75,1.94c1.46,1.23,3.21,1.95,5.13,2.06.06-.05-.48-.94-.56-1.13-.82-2.07-.68-4.39-.15-6.52.07-.3.63-2.26.71-2.35.21-.22.21.08.26.18.71,1.39,1.28,2.97,2.8,3.7L14.13,0ZM17.97,15.99c0-2.19-1.77-3.96-3.96-3.96s-3.96,1.77-3.96,3.96,1.77,3.96,3.96,3.96,3.96-1.77,3.96-3.96Z"/><circle cx="14" cy="15.99" r="2.04"/></svg>
