<svg xmlns="http://www.w3.org/2000/svg" fill="#fff" viewBox="-2 -2 32 32"><path d="M3.88,15l-1.3-1.26c-1.03-1.44-1.08-3.06-.7-4.74l1.89,1.8c.67.41,1.32.93,2.11,1.07-.08-1.47-.17-2.79.19-4.25.44-1.79,1.79-3.14,2.41-4.84.33-.89.51-1.83.53-2.78.76.61,1.57,1.63,1.88,2.56,1.1,3.32-3.43,5.55-1.15,9.4.59.99,2.93,3.31,3.95,3.8.19.09.24.15.48.09.32-.08,2.32-1.76,2.66-2.1.88-.87,2.14-2.42,2.19-3.7.12-3.1-3.46-5.15-1.38-8.5.12-.2,1.25-1.65,1.38-1.56.15,1.03.19,1.88.57,2.87.63,1.66,1.95,2.96,2.37,4.75.34,1.46.25,2.78.19,4.25.79-.14,1.44-.67,2.11-1.07l1.89-1.8c.38,1.68.33,3.3-.7,4.74l-1.3,1.26h3.88c-1.12,4.87-5.46,9.22-9.75,11.57-3.51,1.92-5.09,1.88-8.59-.04C5.42,24.18,1.11,19.84,0,15h3.88ZM11,18c-.12-1.7-1.3-2.87-3-3,.06,1.68,1.34,2.92,3,3ZM20,15c-1.7.13-2.87,1.3-3,3,1.66-.08,2.94-1.32,3-3ZM10,23c-.14-2.25-1.74-3.85-4-4,.06,2.2,1.8,3.94,4,4ZM22,19c-2.25.14-3.85,1.75-4,4,2.19-.06,3.94-1.8,4-4ZM14.12,20.13l-.26.08-1.74,2.74c0,.29,1.55,1.6,1.83,1.93.16.03,1.92-1.74,1.92-1.93l-1.75-2.81Z"/><path d="M14.12,4c.34.85.68,2.31,1.14,3.04.5.78,1.53.95,1.72,2.28.77,5.53-7.71,4.27-5.76-.53.42-1.03,1.14-1.09,1.5-1.63.54-.83.67-2.41,1.4-3.16Z"/></svg>
