<svg xmlns="http://www.w3.org/2000/svg" fill="#fff" viewBox="-2 -2 32 32"><path d="M7.56,16l-7.56,3,2.37-4.95c-.62-1.74-1.71-3.32-2.37-5.05,1.72.51,3.33,1.43,5.05,1.88,2.07-1.77,3.9-3.86,5.88-5.75l-1.94-5.13,4.94,1.88c1.73-.46,3.34-1.37,5.06-1.88l-1.88,4.94c.46,1.73,1.37,3.34,1.88,5.06l-5.06-1.96-3.93,3.96h10.44l7.56-3-2.37,4.95c.62,1.74,1.71,3.32,2.37,5.05-.2.19-4.46-1.99-5.18-1.88l-.33.18-5.47,5.52,1.97,5.17-4.94-1.88c-1.73.46-3.34,1.37-5.06,1.88l1.88-4.94c-.46-1.73-1.37-3.34-1.88-5.06l5.06,1.96,3.93-3.96H7.56Z"/></svg>
