<svg xmlns="http://www.w3.org/2000/svg" fill="#fff" viewBox="-2.5 -2 32 32"><path d="M12.47,18.79v2.36S.87,23.39.87,23.39l-.87-1.69,7.69-8.78c.2-.06,1.76.83,1.85.99.18.3-.08.96-.05,1.42.1,1.55,1.42,3.23,2.98,3.47Z"/><path d="M26.09,23.39l-11.61-2.24v-2.36c1.57-.24,2.89-1.93,2.99-3.47.03-.5-.27-1.14.01-1.48.17-.2,1.63-1.04,1.87-.88l7.57,8.57c.17.34-.79,1.41-.83,1.86Z"/><path d="M9.48,2.65l-1.24,3.91c-2.98,1.84-4.49,4.9-4.83,8.33l-2.68,2.88C-.69,11.33,3.16,4.55,9.48,2.65Z"/><path d="M26.23,17.78l-2.6-2.83c-.49-3.43-1.83-6.52-4.9-8.38l-1.24-3.91c6.32,1.89,10.17,8.68,8.75,15.12Z"/><path d="M12.37.04c.08-.07,2.04-.06,2.18.11l3.63,10.87c.03.38-1.5.94-1.78,1.24-1.77-1.61-4.06-1.61-5.83,0-.29-.29-1.75-.87-1.81-1.19L12.37.04Z"/><path d="M22.23,24.66c-4.77,4.53-12.73,4.53-17.5,0l3.96-.84c3.04,1.52,6.46,1.62,9.49,0l4.05.84Z"/></svg>
