<svg xmlns="http://www.w3.org/2000/svg" fill="#fff" viewBox="-1 -1 30 30"><path d="M14.12,0c.45.63,1.52,2.78,2.06,3.13.33.22,1.39.39,1.9.6.74.3,1.75.81,2.29,1.4-1.59.14-3.41.87-4.95.99-.58.04-1.04-.13-1.61-.12-4.8.11-8.51,4.72-7.7,9.43l-1.05,4.95c-1-1.19-1.51-2.72-1.93-4.19L.08,14.13l-.08-.26c.63-.45,2.78-1.52,3.13-2.06.22-.34.36-1.32.56-1.82,1.41-3.51,4.45-6.02,8.13-6.87L13.86.08l.26-.08Z"/><path d="M28,13.88s.05.27-.08.26l-3.05,2.05c-.85,3.67-3.37,6.72-6.87,8.13-.5.2-1.47.34-1.82.56-.54.35-1.61,2.5-2.06,3.13l-.26-.08-2.05-3.05c-1.48-.43-3-.93-4.19-1.93,1.54-.25,3.43-.94,4.95-1.05.58-.04,1.04.13,1.61.12,4.11-.09,7.72-3.7,7.82-7.82.01-.57-.16-1.04-.12-1.61.11-1.55.85-3.37.99-4.95,1.09,1.09,1.55,2.75,1.99,4.19l3.13,2.06Z"/><polygon points="21 7 18.88 17 16.31 11.76 11 9.06 21 7"/><polygon points="17 18.88 7 21 8.93 11.12 9.12 11 11.76 16.31 17 18.88"/></svg>
